<?xml version="1.0" encoding="UTF-8"?><svg version="1.1" viewBox="0 0 24 24" xmlns="http://www.w3.org/2000/svg" xmlns:xlink="http://www.w3.org/1999/xlink"><!--Generated by IJSVG (https://github.com/iconjar/IJSVG)--><g stroke-linecap="round" stroke-width="1.5" stroke="#323232" fill="none" stroke-linejoin="round"><path d="M10,10.447h4c0.55,0 1,0.45 1,1v3.053c0,0.552 -0.448,1 -1,1h-4c-0.552,0 -1,-0.448 -1,-1v-3.053c0,-0.552 0.448,-1 1,-1Z"></path><path d="M10.316,10.447v-1.263c0,-0.93 0.754,-1.684 1.684,-1.684c0.93,0 1.684,0.754 1.684,1.684v1.261"></path><path d="M5.973,5.067l5.342,-1.946c0.442,-0.161 0.927,-0.161 1.369,0l5.342,1.946c1.186,0.432 1.974,1.558 1.974,2.819v4.872c0,3.581 -1.828,5.05 -7.005,7.981c-0.617,0.349 -1.373,0.349 -1.99,0c-5.177,-2.931 -7.005,-4.4 -7.005,-7.981v-4.872c0,-1.261 0.788,-2.387 1.973,-2.819Z"></path></g><path fill="none" d="M0,0h24v24h-24v-24Z"></path></svg>
