<?xml version="1.0" encoding="utf-8"?>
<!-- Generator: Adobe Illustrator 16.0.0, SVG Export Plug-In . SVG Version: 6.00 Build 0)  -->
<!DOCTYPE svg PUBLIC "-//W3C//DTD SVG 1.1//EN" "http://www.w3.org/Graphics/SVG/1.1/DTD/svg11.dtd">
<svg version="1.1" id="Ebene_1" xmlns="http://www.w3.org/2000/svg" xmlns:xlink="http://www.w3.org/1999/xlink" x="0px" y="0px"
	 width="600px" height="600px" viewBox="0 0 600 600" enable-background="new 0 0 600 600" xml:space="preserve">
<g id="drop_x5F_shadow" display="none">
	
		<image display="inline" overflow="visible" opacity="0.4" width="530" height="530" xlink:href="49E4EC5DC9A16C48.png"  transform="matrix(1 0 0 1 35 45)">
	</image>
	<g display="inline">
		<circle fill="#FFFFFF" cx="300" cy="300" r="250"/>
	</g>
</g>
<g>
	<linearGradient id="SVGID_1_" gradientUnits="userSpaceOnUse" x1="464.2422" y1="124.3413" x2="136.6348" y2="475.6571">
		<stop  offset="0" style="stop-color:#677782"/>
		<stop  offset="0.2703" style="stop-color:#63737E"/>
		<stop  offset="0.5779" style="stop-color:#586770"/>
		<stop  offset="0.9026" style="stop-color:#475259"/>
		<stop  offset="1" style="stop-color:#404B51"/>
	</linearGradient>
	<path fill="url(#SVGID_1_)" d="M534.441,245.975C504.606,116.743,375.653,36.158,246.413,65.997
		C117.179,95.833,36.6,224.789,66.437,354.023c29.837,129.234,158.789,209.815,288.025,179.98
		C483.699,504.165,564.277,375.212,534.441,245.975z"/>
	<linearGradient id="SVGID_2_" gradientUnits="userSpaceOnUse" x1="438.1553" y1="102.1987" x2="258.6013" y2="413.1953">
		<stop  offset="0" style="stop-color:#B3CFDC"/>
		<stop  offset="0.0784" style="stop-color:#A7C2CE"/>
		<stop  offset="0.2307" style="stop-color:#96AEBB"/>
		<stop  offset="0.4058" style="stop-color:#89A1AD"/>
		<stop  offset="0.6217" style="stop-color:#8298A4"/>
		<stop  offset="1" style="stop-color:#8096A2"/>
	</linearGradient>
	<path fill="url(#SVGID_2_)" d="M421.707,507.364c88.359-51.638,136.968-156.42,112.734-261.389
		C504.606,116.743,375.653,36.158,246.413,65.997c-18.276,4.219-35.577,10.424-51.732,18.329
		c-38.42,96.76-60.317,152.799-63.957,163.711c-8.479,25.424-6.434,47.579,5.659,60.963c11.865,13.132,32.409,15.381,68.575,7.031
		l125.299-28.928l63.239-14.6c28.832-6.082,60.66-10.119,79.45,10.676c14.887,16.477,17.816,42.832,8.018,72.21
		C477.367,366.169,457.489,417.172,421.707,507.364z"/>
	<g>
		<g>
			<path fill="#677782" d="M273.542,234.948l-9.756,2.252l-53.621,12.378l-3.083,0.71l-0.992,3.004l-51.765,156.331l-3.147,9.504
				l9.754-2.254l53.624-12.379l3.082-0.711l0.994-3.004l51.762-156.327L273.542,234.948L273.542,234.948z M367.917,213.158
				l-9.757,2.253l-53.617,12.378l-3.082,0.712l-0.994,3.001l-51.766,156.331l-3.145,9.503l9.754-2.252l53.62-12.378l3.083-0.711
				l0.993-3.003l51.765-156.331L367.917,213.158L367.917,213.158z M461.103,191.645l-9.756,2.252l-53.622,12.379l-3.08,0.711
				l-0.994,3.002l-51.766,156.331l-3.145,9.503l9.754-2.252l53.619-12.379l3.082-0.712l0.996-3.002l51.762-156.33L461.103,191.645
				L461.103,191.645z"/>
		</g>
	</g>
	<g>
		<path fill="#FFFFFF" d="M352.534,210.347l9.756-2.253l-3.147,9.504L307.38,373.927l-0.994,3.004l-3.082,0.713l-53.619,12.377
			l-9.756,2.253l3.146-9.506l51.765-156.327l0.992-3.004l3.082-0.709L352.534,210.347z M522.664,413.706
			c-24.357,47.761-61.967,84.33-106.06,107.53c-0.023,0.059-0.047,0.116-0.069,0.174c-4.891,2.561-9.886,4.972-14.986,7.219
			c0.016-0.041,0.032-0.081,0.049-0.122c-31.892,14.162-66.603,21.627-101.8,21.627c-38.209,0-76.979-8.825-113.352-27.374
			C63.472,460.046,14.622,309.506,77.338,186.532C121.501,99.933,209.231,50,300.204,50c0.005,0,0.007,0,0.013,0
			c38.203,0,76.969,8.865,113.338,27.413C536.529,140.128,585.377,290.736,522.664,413.706z M530.859,316.788
			c2.135-29.838-1.486-59.484-10.766-88.079c-9.279-28.593-23.745-54.741-42.994-77.638c-19.925-23.701-44.14-43.201-71.976-57.397
			C372.192,76.877,336.896,68,300.217,68h-0.013c-38.81,0-76.997,10.111-111.049,28.677
			c-35.296,88.962-55.444,140.676-58.927,151.112c-8.501,25.484-6.436,47.796,5.686,61.213c8.38,9.274,21.089,13.152,40.544,11.694
			l24.004-72.48l0.996-2.997l3.081-0.709l53.62-12.377l9.756-2.252l-3.147,9.505l-51.764,156.33l-0.992,3.003l-3.083,0.711
			l-53.624,12.38l-9.753,2.251l3.147-9.502l23.948-72.326c-17.429,0.595-33.671-3.006-45.084-15.637
			c-14.921-16.516-17.82-42.771-7.999-72.216c3.41-10.221,21.432-56.51,53.736-138.019c-33.666,22.004-61.021,52.585-79.433,88.686
			c-14.196,27.835-22.515,57.607-24.725,88.491c-2.136,29.839,1.486,59.466,10.764,88.06c9.279,28.595,23.744,54.701,42.996,77.6
			c19.922,23.7,44.138,42.913,71.974,57.109c32.932,16.795,68.234,25.31,104.922,25.31c39.179,0,77.721-9.953,112.017-28.843
			c35.226-88.812,55.328-140.356,58.805-150.782c8.502-25.483,6.413-47.855-5.708-61.271c-8.314-9.203-20.852-12.908-40.065-11.638
			l-24.281,73.334l-0.994,3.003l-3.083,0.711l-53.623,12.379l-9.753,2.253l3.147-9.504l51.765-156.331l0.992-3.002l3.083-0.711
			l53.621-12.379l9.756-2.252l-3.148,9.504l-23.685,71.526c17.268-0.494,33.303,3.038,44.619,15.562
			c14.921,16.516,17.856,42.926,8.036,72.372c-3.405,10.2-21.36,56.355-53.548,137.59c33.184-21.931,60.165-52.123,78.386-87.849
			C520.331,377.452,528.648,347.671,530.859,316.788z"/>
	</g>
</g>
</svg>
