<?xml version="1.0" encoding="utf-8"?>
<!-- Generator: Adobe Illustrator 16.0.3, SVG Export Plug-In . SVG Version: 6.00 Build 0)  -->
<!DOCTYPE svg PUBLIC "-//W3C//DTD SVG 1.1//EN" "http://www.w3.org/Graphics/SVG/1.1/DTD/svg11.dtd">
<svg version="1.1" xmlns="http://www.w3.org/2000/svg" xmlns:xlink="http://www.w3.org/1999/xlink" x="0px" y="0px" width="960px"
	 height="960px" viewBox="0 0 960 960" enable-background="new 0 0 960 960" xml:space="preserve">
<g id="BG" display="none">
</g>
<g id="Raster">
</g>
<g id="Ebene_1">
	<g opacity="0.8">
		<defs>
			<path id="SVGID_4_" opacity="0.8" d="M1619,1602.34v-206.913l59-13.427v-212l-61-61h-212l-12.988,58h-209.813L1169,1109H957
				l-61,61v212l61,13.66v206.686L897,1616v212l61,61h212l13.437-60h209.909l13.654,60h212l61-61v-212L1619,1602.34z M1079,1707v-418
				h418v418H1079z"/>
		</defs>
		<clipPath id="SVGID_2_">
			<use xlink:href="#SVGID_4_"  overflow="visible"/>
		</clipPath>
		<linearGradient id="SVGID_3_" gradientUnits="userSpaceOnUse" x1="1287" y1="1977" x2="1287" y2="1018.1655">
			<stop  offset="0" style="stop-color:#000000"/>
			<stop  offset="1" style="stop-color:#FFFFFF"/>
		</linearGradient>
		
			<rect x="807" y="1017" opacity="0.2" clip-path="url(#SVGID_2_)" fill="url(#SVGID_3_)" stroke="#7A276E" stroke-width="140" stroke-linejoin="bevel" stroke-miterlimit="10" width="960" height="960"/>
	</g>
	<g>
		<polygon fill="none" stroke="#B70B0B" stroke-width="100" stroke-linejoin="bevel" stroke-miterlimit="10" points="
			763.447,826.871 827.371,763.995 196.517,135.762 134.689,198.113 		"/>
		<polygon fill="none" stroke="#B70B0B" stroke-width="100" stroke-linejoin="bevel" stroke-miterlimit="10" points="
			133.379,761.637 196.255,825.562 824.488,194.708 762.137,132.879 		"/>
	</g>
	<g opacity="0.4">
		<defs>
			<polygon id="SVGID_22_" opacity="0.4" points="612.992,477.948 860.917,228.989 860.694,158.204 798.343,96.375 727.781,96.524 
				479.397,344.907 232.799,99.333 162.013,99.556 100.185,161.907 100.334,232.469 346.085,478.22 99.024,725.281 98.733,795.698 
				161.609,859.623 232.685,859.843 479.682,611.815 729.092,861.227 799.51,861.518 863.434,798.642 863.652,727.566 			"/>
		</defs>
		<clipPath id="SVGID_5_">
			<use xlink:href="#SVGID_22_"  overflow="visible"/>
		</clipPath>
		<linearGradient id="SVGID_6_" gradientUnits="userSpaceOnUse" x1="479.0005" y1="959" x2="479.0005" y2="0.166">
			<stop  offset="0" style="stop-color:#000000"/>
			<stop  offset="1" style="stop-color:#FFFFFF"/>
		</linearGradient>
		<rect x="-1" y="-1" opacity="0.2" clip-path="url(#SVGID_5_)" fill="url(#SVGID_6_)" width="960" height="960"/>
	</g>
</g>
</svg>
