<?xml version="1.0" encoding="utf-8"?>
<!-- Generator: Adobe Illustrator 16.0.0, SVG Export Plug-In . SVG Version: 6.00 Build 0)  -->
<!DOCTYPE svg PUBLIC "-//W3C//DTD SVG 1.1//EN" "http://www.w3.org/Graphics/SVG/1.1/DTD/svg11.dtd">
<svg version="1.1" id="Ebene_1" xmlns="http://www.w3.org/2000/svg" xmlns:xlink="http://www.w3.org/1999/xlink" x="0px" y="0px"
	 width="600px" height="600px" viewBox="0 0 600 600" enable-background="new 0 0 600 600" xml:space="preserve">
<g>
	<linearGradient id="SVGID_1_" gradientUnits="userSpaceOnUse" x1="342.3418" y1="60.0967" x2="257.6598" y2="540.3521">
		<stop  offset="0" style="stop-color:#D88B8B"/>
		<stop  offset="0.4908" style="stop-color:#A86C6C"/>
		<stop  offset="1" style="stop-color:#724949"/>
	</linearGradient>
	<path fill="url(#SVGID_1_)" d="M543.794,300.227c0,134.643-109.155,243.789-243.796,243.789
		c-134.64,0-243.792-109.146-243.792-243.789c0-134.638,109.152-243.794,243.792-243.794
		C434.639,56.433,543.794,165.588,543.794,300.227z"/>
	<path fill="#FFFFFF" d="M413.555,77.441C377.187,58.894,338.42,50,300.216,50c-0.004,0-0.008,0-0.012,0
		C209.231,50,121.5,99.958,77.338,186.557C14.622,309.533,63.471,460.118,186.446,522.831
		c36.371,18.551,75.142,27.366,113.352,27.366c90.973,0,178.7-49.836,222.866-136.439
		C585.376,290.789,536.528,140.156,413.555,77.441z M253,390.326v-48.377c0,0,0.45-13.195,12.983-13.195
		c12.561,0,13.017,13.195,13.017,13.195v47.047C271,389.266,262,389.703,253,390.326z M317,388.996v-47.047
		c0,0,0.455-13.195,13.015-13.195c12.534,0,12.985,13.195,12.985,13.195v48.377C334,389.703,325,389.266,317,388.996z M312,388.879
		c-5-0.08-9.033-0.127-13.493-0.127c-4.465,0-9.507,0.047-13.507,0.127v-49.248c0,0,0.938-13.184,13.517-13.184
		c12.553,0,13.483,13.184,13.483,13.184V388.879z M506.135,405.342c-19.754,38.732-49.803,70.971-86.895,93.221
		c-18.978,11.381-39.391,19.938-60.59,25.502l-4.471-73.086c0-14.838,3.578-26.334,10.367-33.252
		c5.051-5.176,10.133-6.008,10.197-6.033L376,411.51v-10.045v-0.035v-6.941l-1.09-0.24c-6.826-1.301-14.91-2.398-23.91-3.254
		v-52.463c0-7.117,1.822-11.357,4.98-11.357c0.115,0,0.158,0,0.207,0.012l2.885,0.709L359,324.916v-7.068v-0.986v-0.004
		c0-4.047,0-4.572,0-8.449c-7-0.844-16-1.551-25-2.046v-60.33c6-0.921,11.952-2.543,11.952-5.193c0,0-0.802-3.962-5.023-3.962
		c0,0-3.929-35.271-34.929-40.378v-7.684c0,0,0-4.099-5-5.488v-2.557c5-1.392,7.781-5.441,7.781-10.207
		c0-5.943-4.652-10.754-10.572-10.754c-5.927,0-10.695,4.811-10.695,10.754c0,4.766,2.486,8.815,7.486,10.207v2.557
		c-5,1.389-5,5.488-5,5.488v7.684c-30,5.108-34.65,40.378-34.65,40.378c-4.235,0-5.077,3.962-5.077,3.962
		c0,2.65,5.728,4.272,11.728,5.193v60.426c-9,0.537-17.005,1.388-24.375,2.271c0,2.397,0.193,4.271,0.193,7.271H237v1.848v7.068
		v2.959l3.126-0.689c0.027-0.012-0.116-0.012,0.003-0.012c3.174,0,4.871,4.24,4.871,11.357v52.467
		c-9,0.859-16.521,1.939-23.332,3.232L221,394.473v17.033l1.117,0.188c0.062,0.025,5.122,0.857,10.174,6.037
		c6.788,6.916,10.333,18.41,10.333,33.248l-4.437,72.307c-14.818-4.131-29.282-9.771-43.317-16.928
		c-27.834-14.195-52.048-33.408-71.972-57.109c-19.249-22.898-33.713-49.006-42.993-77.6s-12.901-58.221-10.764-88.061
		c2.21-30.882,10.529-60.654,24.726-88.49c19.752-38.733,49.8-70.855,86.893-93.102C216.867,80.339,258.172,69,300.204,69h0.012
		c36.68,0,71.976,8.404,104.908,25.2c27.836,14.195,52.051,33.355,71.974,57.053c19.251,22.9,33.717,48.981,42.996,77.574
		s12.9,58.207,10.765,88.047C528.648,347.755,520.33,377.506,506.135,405.342z M355.992,324.867c0.262,0,0.504,0.018,0.576,0.041
		v0.008C356.568,324.916,356.354,324.873,355.992,324.867z M236.295,263.322L92.709,217.905l1.456-4.603l143.585,45.418
		L236.295,263.322z M453.559,274.275l-80.251,0.949l-0.056-4.826l80.249-0.95L453.559,274.275z M146.439,274.275l0.057-4.827
		l80.252,0.95l-0.058,4.826L146.439,274.275z M505.834,213.303l1.455,4.603l-143.586,45.417l-1.455-4.602L505.834,213.303z
		 M363.696,280.849l143.579,45.423l-1.455,4.6l-143.58-45.423L363.696,280.849z M236.303,280.849l1.455,4.6l-143.58,45.423
		l-1.455-4.6L236.303,280.849z"/>
</g>
</svg>
